<svg width="6" height="6" viewBox="0 0 6 6" fill="none" xmlns="http://www.w3.org/2000/svg">
<path d="M0.603516 4.34766C0.603516 4.03516 0.695312 3.72656 0.878906 3.42188C0.949219 3.28516 1.00195 3.18359 1.03711 3.11719C1.07617 3.04688 1.13672 2.95312 1.21875 2.83594C1.30469 2.71484 1.39258 2.62109 1.48242 2.55469C1.57617 2.48828 1.67773 2.44531 1.78711 2.42578H2.32617C2.31445 2.44922 2.30078 2.48438 2.28516 2.53125C2.26953 2.57422 2.25781 2.60547 2.25 2.625C2.24219 2.64062 2.22852 2.65625 2.20898 2.67188C2.19336 2.6875 2.17383 2.68945 2.15039 2.67773C2.12695 2.66602 2.09766 2.64062 2.0625 2.60156C2.03906 2.57422 2.00977 2.55273 1.97461 2.53711C1.94336 2.52148 1.91797 2.51172 1.89844 2.50781H1.86914C1.82227 2.50781 1.76562 2.5293 1.69922 2.57227C1.63672 2.61523 1.60547 2.6582 1.60547 2.70117C1.60547 2.73242 1.61133 2.77539 1.62305 2.83008C1.63867 2.88477 1.64648 2.92578 1.64648 2.95312C1.65039 2.98047 1.63477 3.00586 1.59961 3.0293C1.56445 3.04883 1.50391 3.05859 1.41797 3.05859C1.39453 3.05859 1.375 3.08203 1.35938 3.12891C1.34375 3.17578 1.33594 3.22266 1.33594 3.26953L1.33008 3.33398C1.33008 3.41602 1.35156 3.47656 1.39453 3.51562C1.4375 3.55078 1.48242 3.57031 1.5293 3.57422C1.57617 3.57422 1.61719 3.57812 1.65234 3.58594C1.6875 3.59375 1.69531 3.61914 1.67578 3.66211C1.66016 3.70508 1.60938 3.77734 1.52344 3.87891C1.5 3.92188 1.48633 3.96289 1.48242 4.00195C1.48242 4.03711 1.49414 4.06836 1.51758 4.0957C1.54102 4.11914 1.56641 4.14062 1.59375 4.16016C1.62109 4.17578 1.6582 4.18945 1.70508 4.20117C1.75195 4.21289 1.79297 4.22266 1.82812 4.23047C1.86328 4.23438 1.90625 4.23828 1.95703 4.24219C2.01172 4.24609 2.05078 4.24805 2.07422 4.24805C2.09766 4.24805 2.12695 4.24805 2.16211 4.24805C2.16211 4.43164 2.2168 4.52344 2.32617 4.52344C2.45508 4.52344 2.51953 4.49609 2.51953 4.44141C2.55078 4.40625 2.58203 4.35938 2.61328 4.30078C2.64453 4.23828 2.67383 4.19336 2.70117 4.16602C2.73242 4.16602 2.7793 4.17969 2.8418 4.20703C2.9043 4.23438 2.94922 4.24805 2.97656 4.24805C3.02344 4.29102 3.08008 4.29297 3.14648 4.25391C3.2168 4.21484 3.25195 4.15234 3.25195 4.06641C3.25195 4.05469 3.24414 4.02539 3.22852 3.97852C3.21289 3.93164 3.20117 3.89062 3.19336 3.85547C3.18555 3.82031 3.19336 3.78711 3.2168 3.75586C3.24023 3.72461 3.2832 3.70898 3.3457 3.70898H3.52734C3.52734 3.69727 3.5293 3.67383 3.5332 3.63867C3.54102 3.59961 3.54688 3.56445 3.55078 3.5332C3.55469 3.49805 3.55469 3.46094 3.55078 3.42188C3.54688 3.38281 3.53516 3.34961 3.51562 3.32227C3.49609 3.29102 3.46875 3.26758 3.43359 3.25195C3.36328 3.25195 3.31055 3.24609 3.27539 3.23438C3.24023 3.22266 3.22266 3.20117 3.22266 3.16992C3.22266 3.13867 3.22461 3.11523 3.22852 3.09961C3.23633 3.08008 3.25586 3.04297 3.28711 2.98828C3.31836 2.93359 3.33789 2.89844 3.3457 2.88281C3.3457 2.85547 3.33008 2.82617 3.29883 2.79492C3.26758 2.76367 3.25195 2.73242 3.25195 2.70117C3.2207 2.70117 3.18945 2.68555 3.1582 2.6543C3.12695 2.61914 3.09766 2.60156 3.07031 2.60156C2.88672 2.60156 2.79492 2.57031 2.79492 2.50781C2.8457 2.50781 2.95703 2.51562 3.12891 2.53125C3.21484 2.53906 3.29297 2.54297 3.36328 2.54297C3.43359 2.54297 3.49805 2.53906 3.55664 2.53125C3.66992 2.51562 3.78125 2.48047 3.89062 2.42578C3.91406 2.42188 3.93555 2.41992 3.95508 2.41992C4.14648 2.42383 4.33203 2.50391 4.51172 2.66016C4.71484 2.83203 4.875 3.04297 4.99219 3.29297C5.11328 3.54297 5.20117 3.80078 5.25586 4.06641C5.28711 4.20703 5.30273 4.33594 5.30273 4.45312C5.30273 4.55078 5.29102 4.63477 5.26758 4.70508C5.17383 4.92773 5.05469 5.0957 4.91016 5.20898C4.76562 5.31836 4.57617 5.39453 4.3418 5.4375H3.98438V5.25586C4.03125 5.20898 4.05859 5.17773 4.06641 5.16211C4.07422 5.14648 4.07812 5.11719 4.07812 5.07422C4.10156 5.04688 4.12891 5.0332 4.16016 5.0332C4.19141 5.0332 4.22461 5.04102 4.25977 5.05664C4.29492 5.06836 4.32227 5.07422 4.3418 5.07422C4.41602 5.00781 4.45312 4.91211 4.45312 4.78711C4.45312 4.73242 4.35742 4.70508 4.16602 4.70508V4.52344C4.21289 4.48438 4.24023 4.45703 4.24805 4.44141C4.25586 4.42188 4.25977 4.38477 4.25977 4.33008C4.25977 4.30664 4.25195 4.28125 4.23633 4.25391C4.2207 4.22656 4.20508 4.20508 4.18945 4.18945L4.16602 4.16602C4.0957 4.12695 4.01758 4.13086 3.93164 4.17773C3.84961 4.22461 3.80664 4.24805 3.80273 4.24805C3.76367 4.24805 3.73242 4.23438 3.70898 4.20703C3.68555 4.17969 3.66992 4.15039 3.66211 4.11914C3.6582 4.08398 3.64453 4.05273 3.62109 4.02539C3.59766 3.99805 3.56641 3.98438 3.52734 3.98438C3.40625 3.98438 3.3457 4.01172 3.3457 4.06641V4.24805C3.35742 4.27148 3.36328 4.29297 3.36328 4.3125C3.36328 4.39844 3.26562 4.44141 3.07031 4.44141L2.89453 4.52344C2.89453 4.69922 2.95312 4.78711 3.07031 4.78711C3.07812 4.79492 3.08984 4.80859 3.10547 4.82812C3.12109 4.84766 3.13281 4.86328 3.14062 4.875C3.14844 4.88281 3.1582 4.89648 3.16992 4.91602C3.18164 4.93164 3.1875 4.94531 3.1875 4.95703C3.19141 4.96875 3.19336 4.98242 3.19336 4.99805C3.19727 5.00977 3.19531 5.02344 3.1875 5.03906C3.17969 5.05078 3.16992 5.0625 3.1582 5.07422V5.16211C3.1582 5.20898 3.16211 5.24609 3.16992 5.27344C3.18164 5.30078 3.19727 5.32031 3.2168 5.33203C3.24023 5.33984 3.25781 5.3457 3.26953 5.34961C3.28516 5.34961 3.31055 5.34961 3.3457 5.34961C3.36133 5.34961 3.39648 5.33594 3.45117 5.30859C3.50586 5.27734 3.55664 5.26172 3.60352 5.26172C3.65039 5.26172 3.68555 5.29102 3.70898 5.34961V5.4375H2.24414C2.07227 5.4375 1.92969 5.43359 1.81641 5.42578C1.70703 5.41797 1.5625 5.40039 1.38281 5.37305C1.20312 5.3418 1.05469 5.28711 0.9375 5.20898C0.820312 5.12695 0.740234 5.02344 0.697266 4.89844C0.634766 4.71484 0.603516 4.53125 0.603516 4.34766ZM1.52344 0.779297V0.685547C1.60156 0.666016 1.67773 0.65625 1.75195 0.65625C1.94336 0.65625 2.10742 0.724609 2.24414 0.861328C2.27148 0.861328 2.34766 0.832031 2.47266 0.773438C2.59766 0.714844 2.67383 0.685547 2.70117 0.685547C2.72461 0.677734 2.75195 0.673828 2.7832 0.673828C2.85742 0.673828 2.95508 0.699219 3.07617 0.75C3.24805 0.824219 3.33789 0.861328 3.3457 0.861328C3.40039 0.806641 3.47266 0.765625 3.5625 0.738281C3.65625 0.710938 3.73242 0.695312 3.79102 0.691406C3.85352 0.6875 3.94922 0.685547 4.07812 0.685547C4.16406 0.685547 4.23828 0.71875 4.30078 0.785156C4.36328 0.847656 4.39453 0.919922 4.39453 1.00195C4.39453 1.0957 4.34961 1.17383 4.25977 1.23633C4.1543 1.30273 4.04492 1.35742 3.93164 1.40039C3.82227 1.44336 3.69531 1.47266 3.55078 1.48828C3.40625 1.50391 3.29297 1.51367 3.21094 1.51758C3.17188 1.51758 3.11719 1.51953 3.04688 1.52344C2.97656 1.52344 2.89453 1.52148 2.80078 1.51758C2.61328 1.51367 2.49219 1.51172 2.4375 1.51172C2.03516 1.42969 1.73047 1.18555 1.52344 0.779297ZM1.8457 1.92773C1.8457 1.9082 1.86328 1.89258 1.89844 1.88086C1.95312 1.85742 2.15039 1.83398 2.49023 1.81055C2.83398 1.78711 3.33203 1.77539 3.98438 1.77539C4.07422 1.77539 4.11914 1.82227 4.11914 1.91602C4.11914 2.00586 4.07422 2.05078 3.98438 2.05078C3.70312 2.13672 3.38086 2.17969 3.01758 2.17969C2.97852 2.17969 2.93945 2.17969 2.90039 2.17969C2.48633 2.17188 2.14258 2.10156 1.86914 1.96875C1.85352 1.95313 1.8457 1.93945 1.8457 1.92773ZM1.91016 3.35156C1.91016 3.19531 1.96094 3.06641 2.0625 2.96484C2.16016 2.90625 2.25781 2.87695 2.35547 2.87695C2.36328 2.87695 2.36914 2.87695 2.37305 2.87695C2.40039 2.88086 2.42969 2.88281 2.46094 2.88281C2.58594 2.90625 2.69727 2.96484 2.79492 3.05859C2.88086 3.14062 2.92383 3.25781 2.92383 3.41016C2.91992 3.43359 2.91797 3.45703 2.91797 3.48047C2.90234 3.66797 2.83008 3.80078 2.70117 3.87891C2.60742 3.92969 2.48633 3.9375 2.33789 3.90234C2.19336 3.86328 2.07422 3.79883 1.98047 3.70898C1.93359 3.57617 1.91016 3.45703 1.91016 3.35156ZM3.36328 4.75781C3.36328 4.71094 3.38672 4.66406 3.43359 4.61719C3.48828 4.5625 3.55078 4.52344 3.62109 4.5C3.64062 4.49609 3.65625 4.49414 3.66797 4.49414C3.67578 4.49414 3.68359 4.49414 3.69141 4.49414C3.73047 4.49414 3.76758 4.50391 3.80273 4.52344C3.8418 4.52344 3.88086 4.55664 3.91992 4.62305C3.96289 4.68555 3.98438 4.74023 3.98438 4.78711C3.92578 4.93945 3.83008 5.01562 3.69727 5.01562C3.67773 5.01562 3.6582 5.01367 3.63867 5.00977C3.51367 4.99414 3.42969 4.9375 3.38672 4.83984C3.37109 4.8125 3.36328 4.78516 3.36328 4.75781Z" fill="white"/>
</svg>
